<svg width="1558" height="246" xmlns="http://www.w3.org/2000/svg" xmlns:xlink="http://www.w3.org/1999/xlink" overflow="hidden"><defs><clipPath id="clip0"><rect x="363" y="87" width="79" height="79"/></clipPath><clipPath id="clip1"><rect x="363" y="87" width="79" height="79"/></clipPath><clipPath id="clip2"><rect x="363" y="87" width="79" height="79"/></clipPath></defs><g transform="matrix(1 0 0 1 0 1)"><path d="M499 53.9463C499 46.244 505.244 40 512.946 40L730.054 40C737.756 40 744 46.244 744 53.9463L744 215.054C744 222.756 737.756 229 730.054 229L512.946 229C505.244 229 499 222.756 499 215.054Z" fill="#F2F2F2" fill-rule="evenodd"/><path d="M37.5001 41.7701C37.5001 31.1275 46.1275 22.5001 56.7701 22.5001L291.23 22.5001C301.873 22.5001 310.5 31.1275 310.5 41.7701L310.5 185.23C310.5 195.873 301.873 204.5 291.23 204.5L56.7701 204.5C46.1275 204.5 37.5001 195.873 37.5001 185.23Z" stroke="#F2F2F2" stroke-width="1.33333" stroke-miterlimit="8" fill="#F2F2F2" fill-rule="evenodd"/><path d="M1 3.15639C1 2.51773 1.51773 2 2.15639 2L1554.84 2C1555.48 2 1556 2.51773 1556 3.15639L1556 241.844C1556 242.482 1555.48 243 1554.84 243L2.15639 243C1.51773 243 1 242.482 1 241.844Z" stroke="#7F7F7F" stroke-width="2" stroke-miterlimit="8" stroke-dasharray="16 6" fill="none" fill-rule="evenodd"/><path d="M25.5001 51.7068C25.5001 41.6515 33.6515 33.5001 43.7068 33.5001L281.293 33.5001C291.349 33.5001 299.5 41.6515 299.5 51.7068L299.5 196.293C299.5 206.349 291.349 214.5 281.293 214.5L43.7068 214.5C33.6515 214.5 25.5001 206.349 25.5001 196.293Z" stroke="#A6A6A6" stroke-width="1.33333" stroke-miterlimit="8" fill="#F2F2F2" fill-rule="evenodd"/><path d="M14.5001 61.8075C14.5001 51.6966 22.6966 43.5001 32.8075 43.5001L269.193 43.5001C279.304 43.5001 287.5 51.6966 287.5 61.8075L287.5 207.193C287.5 217.304 279.304 225.5 269.193 225.5L32.8075 225.5C22.6966 225.5 14.5001 217.304 14.5001 207.193Z" stroke="#181717" stroke-width="1.33333" stroke-miterlimit="8" stroke-dasharray="10.6667 4" fill="#F2F2F2" fill-rule="evenodd"/><g><g><g><path d="M245.899 166.71C246.803 167.877 248.563 167.799 250.543 167.755 250.502 168.227 250.461 168.698 250.42 169.17 250.05 171.479 250.539 173.348 252.419 173.691 252.886 173.776 253.482 173.713 253.834 173.568 254.766 173.183 255.061 172.282 255.249 171.138 255.361 170.456 255.158 169.68 255.31 169.078 255.503 168.313 256.09 167.745 256.694 167.386 257.422 166.954 258.362 166.69 259.339 166.525 260.899 166.262 263.046 167.059 263.583 165.787 263.819 165.227 263.675 164.142 263.675 163.419 263.675 161.584 263.675 159.749 263.675 157.914 263.675 156.868 263.75 155.984 263.153 155.546 262.557 155.108 259.902 155.321 258.847 155.33 258.847 158.744 258.847 162.158 258.847 165.572 256.833 165.679 254.759 167.11 254.295 168.801 253.945 170.079 254.576 172.084 253.465 172.584 251.122 173.637 251.273 170.155 251.527 168.555 251.589 167.94 251.65 167.325 251.712 166.71 251.712 166.679 251.712 166.648 251.712 166.617 250.067 166.68 247.523 167.128 246.699 166.033 246.245 165.43 246.231 164.243 246.484 163.388 246.964 161.761 248.625 157.666 249.713 156.807 250.363 156.293 250.842 156.632 251.835 156.468 253.639 156.438 255.444 156.407 257.248 156.376 257.248 156.028 257.248 155.679 257.248 155.331 254.808 155.361 252.368 155.392 249.928 155.423 249.436 155.566 248.806 156.153 248.513 156.53 248.046 157.131 247.801 157.881 247.406 158.56 246.62 159.911 245.92 161.514 245.469 163.142 245.119 164.405 245.257 165.88 245.899 166.71ZM259.893 156.376C260.764 156.376 261.635 156.376 262.507 156.376 262.802 156.859 262.63 158.126 262.63 158.836 262.62 161.02 262.609 163.204 262.599 165.387 262.19 165.625 260.533 165.488 259.893 165.479 259.893 162.445 259.893 159.41 259.893 156.376Z" fill="#D81E06"/></g></g></g><g><g><g><path d="M106.101 162.29C105.197 161.123 103.437 161.201 101.457 161.245 101.498 160.773 101.539 160.302 101.58 159.83 101.95 157.521 101.461 155.652 99.5808 155.309 99.1137 155.224 98.5183 155.287 98.1661 155.432 97.2343 155.817 96.9389 156.718 96.7514 157.862 96.6395 158.544 96.842 159.32 96.6899 159.922 96.4967 160.687 95.9101 161.255 95.3059 161.614 94.578 162.046 93.638 162.31 92.661 162.475 91.1005 162.738 88.9536 161.941 88.4169 163.213 88.1807 163.773 88.3247 164.858 88.3247 165.581 88.3247 167.416 88.3247 169.251 88.3247 171.086 88.3245 172.132 88.2505 173.016 88.8475 173.454 89.4434 173.892 92.098 173.679 93.1531 173.67 93.1531 170.256 93.1531 166.842 93.1531 163.428 95.1674 163.321 97.2409 161.89 97.7048 160.199 98.0555 158.921 97.4239 156.916 98.5351 156.416 100.878 155.363 100.727 158.845 100.473 160.445 100.411 161.06 100.35 161.675 100.288 162.29 100.288 162.321 100.288 162.352 100.288 162.383 101.933 162.32 104.477 161.872 105.301 162.967 105.755 163.57 105.769 164.757 105.516 165.612 105.036 167.239 103.375 171.334 102.287 172.193 101.637 172.707 101.158 172.368 100.165 172.532 98.361 172.562 96.5564 172.593 94.7523 172.624 94.7523 172.972 94.7523 173.321 94.7523 173.669 97.1919 173.639 99.6322 173.608 102.072 173.577 102.564 173.434 103.194 172.847 103.487 172.47 103.954 171.869 104.199 171.119 104.594 170.44 105.38 169.089 106.08 167.486 106.531 165.858 106.881 164.595 106.743 163.12 106.101 162.29ZM92.1074 172.624C91.2361 172.624 90.3646 172.624 89.4933 172.624 89.1977 172.141 89.3702 170.874 89.3702 170.164 89.3805 167.98 89.3908 165.796 89.401 163.613 89.8103 163.375 91.4669 163.512 92.1074 163.521 92.1074 166.555 92.1074 169.59 92.1074 172.624Z" fill="#1296DB"/></g></g></g><g><g><g><path d="M43.5949 69.7478 20.8498 69.7478C13.1946 69.7478 6.96774 63.7161 6.96774 56.3024L6.96774 13.4461C6.96774 6.03012 13.1946 0.000696797 20.8498 0.000696797L49.9889 0.000696797C57.6442 0.000696797 63.871 6.03012 63.871 13.4461L63.871 52.1891C63.871 54.0797 63.0442 55.8657 61.6018 57.0944L58.4013 59.8188C57.4258 60.6502 55.9579 60.5318 55.1265 59.554 54.295 58.5761 54.4134 57.1129 55.3912 56.2792L58.5941 53.5548C58.9958 53.2133 59.2258 52.7163 59.2258 52.1891L59.2258 13.4461C59.2258 8.59423 55.0823 4.64586 49.9889 4.64586L20.8498 4.64586C15.7564 4.64586 11.6129 8.59423 11.6129 13.4461L11.6129 56.3024C11.6129 61.1542 15.7564 65.1026 20.8498 65.1026L43.5949 65.1026C44.5634 65.1026 45.5202 64.7821 46.2914 64.1992L49.4686 61.7813C50.4882 61.0033 51.9468 61.203 52.7226 62.2249 53.5006 63.2445 53.3009 64.7009 52.2813 65.4789L49.0947 67.9037C47.513 69.0952 45.5644 69.7478 43.5949 69.7478" fill="#1296DB" transform="matrix(1.01389 0 0 1 28 103)"/><path d="M37.4516 18.0771 18 18.0771C16.7179 18.0771 15.6774 17.0389 15.6774 15.7545 15.6774 14.4702 16.7179 13.4319 18 13.4319L37.4516 13.4319C38.7337 13.4319 39.7742 14.4702 39.7742 15.7545 39.7742 17.0389 38.7337 18.0771 37.4516 18.0771" fill="#1296DB" transform="matrix(1.01389 0 0 1 28 103)"/><path d="M51.7501 30.4885 18.0007 30.4885C16.7186 30.4885 15.6781 29.4503 15.6781 28.1659 15.6781 26.8815 16.7186 25.8434 18.0007 25.8434L51.7501 25.8434C53.0321 25.8434 54.0727 26.8815 54.0727 28.1659 54.0727 29.4503 53.0321 30.4885 51.7501 30.4885" fill="#1296DB" transform="matrix(1.01389 0 0 1 28 103)"/><path d="M51.5051 43.1175 17.7557 43.1175C16.4736 43.1175 15.4331 42.0794 15.4331 40.795 15.4331 39.5106 16.4736 38.4724 17.7557 38.4724L51.5051 38.4724C52.7872 38.4724 53.8277 39.5106 53.8277 40.795 53.8277 42.0794 52.7872 43.1175 51.5051 43.1175" fill="#1296DB" transform="matrix(1.01389 0 0 1 28 103)"/></g></g></g><g><g><g><path d="M225.595 172.748 202.85 172.748C195.195 172.748 188.968 166.716 188.968 159.302L188.968 116.446C188.968 109.03 195.195 103.001 202.85 103.001L231.989 103.001C239.644 103.001 245.871 109.03 245.871 116.446L245.871 155.189C245.871 157.08 245.044 158.866 243.602 160.094L240.401 162.819C239.426 163.65 237.958 163.532 237.126 162.554 236.295 161.576 236.413 160.113 237.391 159.279L240.594 156.555C240.996 156.213 241.226 155.716 241.226 155.189L241.226 116.446C241.226 111.594 237.082 107.646 231.989 107.646L202.85 107.646C197.756 107.646 193.613 111.594 193.613 116.446L193.613 159.302C193.613 164.154 197.756 168.103 202.85 168.103L225.595 168.103C226.563 168.103 227.52 167.782 228.291 167.199L231.469 164.781C232.488 164.003 233.947 164.203 234.723 165.225 235.501 166.245 235.301 167.701 234.281 168.479L231.095 170.904C229.513 172.095 227.564 172.748 225.595 172.748" fill="#D81E06"/><path d="M219.452 121.077 200 121.077C198.718 121.077 197.677 120.039 197.677 118.755 197.677 117.47 198.718 116.432 200 116.432L219.452 116.432C220.734 116.432 221.774 117.47 221.774 118.755 221.774 120.039 220.734 121.077 219.452 121.077" fill="#D81E06"/><path d="M233.75 133.488 200.001 133.488C198.719 133.488 197.678 132.45 197.678 131.166 197.678 129.882 198.719 128.843 200.001 128.843L233.75 128.843C235.032 128.843 236.073 129.882 236.073 131.166 236.073 132.45 235.032 133.488 233.75 133.488" fill="#D81E06"/><path d="M233.505 146.118 199.756 146.118C198.474 146.118 197.433 145.079 197.433 143.795 197.433 142.511 198.474 141.472 199.756 141.472L233.505 141.472C234.787 141.472 235.828 142.511 235.828 143.795 235.828 145.079 234.787 146.118 233.505 146.118" fill="#D81E06"/></g></g></g><text fill="#7F7F7F" font-family="Calibri,Calibri_MSFontService,sans-serif" font-weight="700" font-size="24" transform="translate(62.5867 85)">Preference Data</text><text fill="#1296DB" font-family="Calibri,Calibri_MSFontService,sans-serif" font-weight="700" font-size="24" transform="translate(21.3753 200)">chosen</text><text fill="#1296DB" font-family="Cambria Math,Cambria Math_MSFontService,sans-serif" font-weight="400" font-size="24" transform="translate(96.8753 200)">ğ’š</text><text fill="#1296DB" font-family="Cambria Math,Cambria Math_MSFontService,sans-serif" font-weight="400" font-size="18" transform="translate(111.209 205)">ğ’˜</text><text fill="#D81E06" font-family="Calibri,Calibri_MSFontService,sans-serif" font-weight="700" font-size="24" transform="translate(180.042 201)">reject</text><text fill="#D81E06" font-family="Cambria Math,Cambria Math_MSFontService,sans-serif" font-weight="400" font-size="24" transform="translate(242.275 201)">ğ’š</text><text fill="#D81E06" font-family="Cambria Math,Cambria Math_MSFontService,sans-serif" font-weight="400" font-size="18" transform="translate(256.608 206)">ğ’</text><text fill="#7F7F7F" font-family="Calibri,Calibri_MSFontService,sans-serif" font-weight="700" font-size="24" transform="translate(375.516 29)">(1) Response Split</text><g><g><g><path d="M6.375 8.5 61.625 8.5 61.625 14.875 6.375 14.875ZM6.375 38.25 61.625 38.25 61.625 44.625 6.375 44.625ZM6.375 23.375 44.625 23.375 44.625 29.75 6.375 29.75ZM6.375 53.125 44.625 53.125 44.625 59.5 6.375 59.5Z" fill="#1296DB" transform="matrix(1 0 0 1.01471 525 92)"/></g></g></g><path d="M525 99.3336C525 93.0742 530.074 88 536.334 88L581.666 88C587.926 88 593 93.0742 593 99.3336L593 152.666C593 158.926 587.926 164 581.666 164L536.334 164C530.074 164 525 158.926 525 152.666Z" stroke="#1296DB" stroke-width="4" stroke-miterlimit="8" fill="none" fill-rule="evenodd"/><g><g><g><path d="M657.469 100.625 713.531 100.625 713.531 107.094 657.469 107.094ZM657.469 130.812 713.531 130.812 713.531 137.281 657.469 137.281ZM657.469 115.719 696.281 115.719 696.281 122.188 657.469 122.188ZM657.469 145.906 696.281 145.906 696.281 152.375 657.469 152.375Z" fill="#D81E06"/></g></g></g><path d="M651 99.5002C651 93.1488 656.149 88 662.5 88L708.5 88C714.851 88 720 93.1488 720 99.5002L720 151.5C720 157.851 714.851 163 708.5 163L662.5 163C656.149 163 651 157.851 651 151.5Z" stroke="#D81E06" stroke-width="4" stroke-miterlimit="8" fill="none" fill-rule="evenodd"/><g clip-path="url(#clip0)"><g clip-path="url(#clip1)"><g clip-path="url(#clip2)"><path d="M437.794 113.042C437.798 114.964 437.513 116.874 436.949 118.711 436.811 119.145 436.85 119.437 437.166 119.797 439.584 122.565 441.168 125.962 441.732 129.593 441.922 130.651 442.013 131.726 442.009 132.804 441.958 136.855 440.676 140.795 438.335 144.101 436.406 146.866 433.801 149.091 430.767 150.563 429.388 151.25 427.928 151.762 426.422 152.088 426.1 152.133 425.835 152.366 425.751 152.681 423.586 158.491 419.589 162.516 413.743 164.756 411.837 165.475 409.829 165.886 407.794 165.972 402.58 166.225 397.943 164.736 393.89 161.497 393.234 160.948 392.608 160.366 392.014 159.751 391.801 159.501 391.463 159.393 391.145 159.475 386.365 160.316 381.807 159.664 377.577 157.286 372.058 154.185 368.736 149.477 367.512 143.359 366.929 140.34 367.106 137.223 368.029 134.289L368.116 134.013C368.208 133.797 368.154 133.547 367.982 133.389 365.078 130.118 363.345 125.974 363.056 121.61 362.8 118.001 363.566 114.394 365.268 111.202 367.245 107.331 370.446 104.223 374.373 102.362 375.711 101.712 377.122 101.224 378.576 100.908 378.904 100.865 379.168 100.632 379.251 100.316 380.315 97.2499 382.134 94.5018 384.54 92.3247 390.921 86.5374 400.235 85.348 407.865 89.3464 409.745 90.3259 411.436 91.6097 412.874 93.1502 413.21 93.5097 413.526 93.5847 414.003 93.5057 417.868 92.7964 421.855 93.2331 425.474 94.7618 428.058 95.8268 430.384 97.4322 432.296 99.4702 435.792 103.128 437.759 107.983 437.794 113.042ZM407.893 95.5715C407.762 95.4451 407.676 95.3503 407.577 95.2713 404.503 92.8723 400.614 91.767 396.738 92.1903 393.652 92.466 390.735 93.7261 388.419 95.7848 385.074 98.7117 383.312 102.405 383.272 106.821 383.221 112.845 383.264 118.869 383.253 124.896 383.217 125.24 383.411 125.568 383.727 125.71 385.741 126.84 387.74 127.989 389.747 129.131 389.865 129.202 389.999 129.249 390.189 129.336L390.189 107.279C390.189 106.201 390.643 105.411 391.587 104.87L407.363 95.8875 407.893 95.5676ZM378.058 106.422C377.885 106.473 377.766 106.501 377.644 106.549 375.928 107.201 374.358 108.185 373.022 109.444 369.388 112.9 367.757 117.111 368.353 122.06 368.946 126.911 371.43 130.632 375.688 133.116 380.946 136.178 386.259 139.152 391.54 142.174 391.799 142.352 392.141 142.348 392.397 142.166 394.384 141.02 396.375 139.891 398.369 138.757 398.516 138.678 398.642 138.587 398.812 138.472 398.666 138.37 398.559 138.291 398.448 138.228L384.734 130.407 379.362 127.345C378.83 127.069 378.428 126.593 378.244 126.022 378.124 125.617 378.063 125.196 378.062 124.774 378.05 118.912 378.05 113.05 378.062 107.188L378.062 106.422ZM432.351 115.626C432.683 113.896 432.674 112.118 432.323 110.392 431.257 105.308 428.346 101.599 423.507 99.5373 418.811 97.5346 414.185 97.9139 409.741 100.446 404.557 103.406 399.369 106.36 394.178 109.31 393.936 109.415 393.786 109.662 393.803 109.926 393.819 112.28 393.811 114.626 393.811 116.98 393.811 117.091 393.831 117.198 393.85 117.376L394.708 116.89 408.509 109.029 413.194 106.359C413.692 106.058 414.272 105.92 414.853 105.964 415.314 106.019 415.756 106.177 416.148 106.426 418.854 107.975 421.56 109.519 424.27 111.059L432.008 115.468C432.119 115.527 432.234 115.58 432.351 115.626ZM372.588 137.295C372.524 138.133 372.449 138.844 372.43 139.559 372.322 142.221 372.995 144.857 374.365 147.143 377.545 152.404 382.305 154.877 388.479 154.648 390.896 154.565 393.139 153.771 395.229 152.562 397.496 151.251 399.78 149.959 402.059 148.663 404.966 147.004 407.876 145.349 410.788 143.698 411.056 143.573 411.214 143.293 411.183 142.999 411.171 140.712 411.179 138.425 411.175 136.142 411.175 135.984 411.159 135.834 411.148 135.628 410.962 135.723 410.832 135.783 410.705 135.854 408.655 137.017 406.608 138.185 404.563 139.357L395.794 144.354 391.71 146.681C390.9 147.175 389.881 147.175 389.071 146.681L388.68 146.463 374.326 138.283C373.785 137.967 373.243 137.667 372.588 137.295ZM406.151 114.508C406.309 114.611 406.384 114.674 406.467 114.717 410.535 117.044 414.604 119.362 418.668 121.677L425.628 125.643C426.217 125.959 426.647 126.504 426.813 127.144 426.901 127.459 426.943 127.785 426.94 128.112 426.948 134.1 426.948 140.092 426.94 146.084L426.94 146.59C427.22 146.487 427.453 146.408 427.678 146.313 429.44 145.582 431.036 144.516 432.371 143.169 435.484 140.025 437.016 136.257 436.732 131.86 436.388 126.63 433.888 122.641 429.365 119.904 427.872 118.999 426.335 118.158 424.815 117.301L413.435 110.803C413.188 110.636 412.863 110.64 412.621 110.814 411.266 111.604 409.899 112.371 408.541 113.141L406.151 114.508ZM414.809 123.652 414.809 145.626C414.809 146.72 414.398 147.553 413.427 148.099L405.471 152.629 397.481 157.188C397.362 157.255 397.251 157.346 397.097 157.452 397.279 157.598 397.413 157.721 397.556 157.827 401.94 160.976 406.72 161.75 411.835 159.964 417.675 157.933 421.623 152.468 421.718 146.285 421.749 140.195 421.718 134.104 421.73 128.017 421.759 127.719 421.598 127.436 421.327 127.31 419.285 126.164 417.258 124.999 415.22 123.838 415.129 123.782 415.022 123.751 414.809 123.652ZM393.811 131.453 402.501 136.403 411.144 131.477C411.158 131.429 411.168 131.38 411.175 131.331 411.175 128.167 411.175 124.999 411.187 121.831 411.187 121.57 411.057 121.464 410.855 121.349 408.317 119.91 405.781 118.467 403.248 117.02L402.497 116.605 402.193 116.771 394.151 121.337C393.913 121.449 393.773 121.7 393.803 121.962 393.815 124.197 393.803 126.433 393.803 128.673L393.807 131.453Z" fill="#BFBFBF"/></g></g></g><text font-family="Calibri,Calibri_MSFontService,sans-serif" font-weight="400" font-size="24" transform="translate(347.888 201)">LLM to Split</text><text fill="#7F7F7F" font-family="Calibri,Calibri_MSFontService,sans-serif" font-weight="700" font-size="24" transform="translate(509.08 64)">sub</text><text fill="#7F7F7F" font-family="Calibri,Calibri_MSFontService,sans-serif" font-weight="700" font-size="24" transform="translate(544.246 64)">-</text><text fill="#7F7F7F" font-family="Calibri,Calibri_MSFontService,sans-serif" font-weight="700" font-size="24" transform="translate(551.58 64)">sentences</text><text fill="#1296DB" font-family="Calibri,Calibri_MSFontService,sans-serif" font-weight="700" font-size="24" transform="translate(506.48 188)">chosen set</text><text fill="#1296DB" font-family="Cambria Math,Cambria Math_MSFontService,sans-serif" font-weight="400" font-size="24" transform="translate(547.567 217)">ğ‘º</text><text fill="#1296DB" font-family="Cambria Math,Cambria Math_MSFontService,sans-serif" font-weight="400" font-size="18" transform="translate(561.234 222)">ğ’˜</text><text fill="#D81E06" font-family="Calibri,Calibri_MSFontService,sans-serif" font-weight="700" font-size="24" transform="translate(638.071 188)">reject set</text><text fill="#D81E06" font-family="Cambria Math,Cambria Math_MSFontService,sans-serif" font-weight="400" font-size="24" transform="translate(676.191 217)">ğ‘º</text><text fill="#D81E06" font-family="Cambria Math,Cambria Math_MSFontService,sans-serif" font-weight="400" font-size="18" transform="translate(689.858 222)">ğ’</text><text fill="#7F7F7F" font-family="Calibri,Calibri_MSFontService,sans-serif" font-weight="700" font-size="24" transform="translate(803.007 29)">(2) Divergence Calculation</text><path d="M128.058 123.26C130.508 127.28 134.485 130.269 139.988 132.227 145.492 134.186 150.788 135.32 155.878 135.63L156.188 135.63 156.188 139.253 155.878 139.253C150.788 139.564 145.483 140.672 139.962 142.579 134.442 144.485 130.473 147.5 128.058 151.624L125.056 149.631C127.299 146.06 130.301 143.321 134.062 141.414 137.823 139.508 142.792 138.253 148.968 137.649L148.968 137.364C142.775 136.622 137.801 135.285 134.049 133.353 130.297 131.421 127.299 128.721 125.056 125.253Z" fill="#00B050" fill-rule="evenodd"/><text fill="#000000" fill-opacity="0" font-family="Arial,Arial_MSFontService,sans-serif" font-size="28.3633" x="125.056" y="148.078">â‰»</text><g><g><g><path d="M882.967 127.136C880.603 127.136 878.423 127.944 876.7 129.289L867.006 118.874 876.516 108.723C878.273 110.155 880.515 111.017 882.967 111.017 888.601 111.017 893.162 106.455 893.162 100.821 893.162 95.1875 888.601 90.626 882.967 90.626 878.959 90.626 875.487 92.9375 873.826 96.3037L837.545 84.1396C837.826 83.208 837.976 82.2148 837.976 81.1953 837.976 75.5615 833.414 71 827.78 71 822.146 71 817.585 75.5615 817.585 81.1953 817.585 86.8291 822.146 91.3906 827.78 91.3906 830.206 91.3906 832.43 90.5469 834.179 89.1318L852.513 108.846 837.51 113.882C836.209 109.742 832.351 106.745 827.78 106.745 822.146 106.745 817.585 111.307 817.585 116.94 817.585 122.574 822.146 127.136 827.78 127.136 831.278 127.136 834.372 125.369 836.209 122.68L852.987 128.313 836.64 145.76C834.882 142.684 831.577 140.609 827.78 140.609 822.146 140.609 817.585 145.171 817.585 150.805 817.585 156.438 822.146 161 827.78 161 832.676 161 836.763 157.546 837.747 152.949L873.439 140.961C874.907 144.793 878.616 147.526 882.967 147.526 888.601 147.526 893.162 142.965 893.162 137.331 893.162 131.697 888.601 127.136 882.967 127.136ZM873.237 131.126 859.764 126.608 864.413 121.643 873.237 131.126ZM874.072 105.813 864.431 116.105 859.28 110.568 873.967 105.629 874.072 105.813ZM838.811 88.5518 872.815 99.96C872.789 100.25 872.78 100.54 872.78 100.83 872.78 101.234 872.807 101.63 872.851 102.025L856.459 107.527 838.811 88.5518ZM837.721 119.208C837.826 118.725 837.905 118.232 837.94 117.723L855.343 111.878 861.838 118.865 855.826 125.281 837.721 119.208ZM873.026 135.037C872.868 135.731 872.78 136.461 872.771 137.199L839.303 148.44 856.925 129.641 873.026 135.037Z" fill="#BFBFBF"/></g></g></g><text font-family="Calibri,Calibri_MSFontService,sans-serif" font-weight="400" font-size="24" transform="translate(788.245 188)">Visual Encoder</text><text font-family="Calibri,Calibri_MSFontService,sans-serif" font-weight="400" font-size="24" transform="translate(781.878 217)">of MLLM (</text><text font-family="Cambria Math,Cambria Math_MSFontService,sans-serif" font-weight="400" font-size="24" transform="translate(881.544 217)">ğšª</text><text font-family="Cambria Math,Cambria Math_MSFontService,sans-serif" font-weight="400" font-size="18" transform="translate(892.418 222)">ğ‚ğ‹ğˆğ</text><text font-family="Calibri,Calibri_MSFontService,sans-serif" font-weight="400" font-size="24" transform="translate(930.911 217)">)</text><path d="M963 47.0992C963 41.5216 967.522 37 973.099 37L1247.9 37C1253.48 37 1258 41.5216 1258 47.0992L1258 218.901C1258 224.478 1253.48 229 1247.9 229L973.099 229C967.522 229 963 224.478 963 218.901Z" fill="#F2F2F2" fill-rule="evenodd"/><rect x="997.5" y="78.5001" width="15" height="110" stroke="#1296DB" stroke-width="1.33333" stroke-miterlimit="8" fill="#DAE3F3"/><rect x="1016.5" y="105.5" width="14.9999" height="83" stroke="#1296DB" stroke-width="1.33333" stroke-miterlimit="8" fill="#DAE3F3"/><rect x="1034.5" y="127.5" width="15" height="61" stroke="#1296DB" stroke-width="1.33333" stroke-miterlimit="8" fill="#DAE3F3"/><rect x="1053.5" y="136.5" width="15" height="52" stroke="#1296DB" stroke-width="1.33333" stroke-miterlimit="8" fill="#DAE3F3"/><path d="M993.833 62.5001 993.833 205.681 991.167 205.681 991.167 62.5001ZM992.5 62.5001 988.5 67.8334 992.5 54.5001 996.5 67.8334Z"/><rect x="1076.5" y="92.5001" width="15" height="96" stroke="#D81E06" stroke-width="1.33333" stroke-miterlimit="8" fill="#F8CBAD"/><rect x="1095.5" y="148.5" width="15" height="40" stroke="#D81E06" stroke-width="1.33333" stroke-miterlimit="8" fill="#F8CBAD"/><rect x="1114.5" y="111.5" width="15" height="77" stroke="#D81E06" stroke-width="1.33333" stroke-miterlimit="8" fill="#F8CBAD"/><text font-family="Calibri,Calibri_MSFontService,sans-serif" font-weight="400" font-size="21" transform="translate(998.372 65)">Probability</text><text font-family="Cambria Math,Cambria Math_MSFontService,sans-serif" font-weight="400" font-size="21" transform="translate(1006.53 218)">ğšª</text><text font-family="Cambria Math,Cambria Math_MSFontService,sans-serif" font-weight="400" font-size="15" transform="translate(1016.2 222)">ğ‚ğ‹ğˆğ</text><text font-family="Cambria Math,Cambria Math_MSFontService,sans-serif" font-weight="400" font-size="21" transform="translate(1050.59 218)">(</text><text font-family="Cambria Math,Cambria Math_MSFontService,sans-serif" font-weight="400" font-size="21" transform="translate(1059.42 218)">ğ’</text><text font-family="Cambria Math,Cambria Math_MSFontService,sans-serif" font-weight="400" font-size="15" transform="translate(1070.75 222)">ğ°</text><text font-family="Cambria Math,Cambria Math_MSFontService,sans-serif" font-weight="400" font-size="21" transform="translate(1084.31 218)">,</text><text font-family="Cambria Math,Cambria Math_MSFontService,sans-serif" font-weight="400" font-size="21" transform="translate(1092.19 218)">I</text><text font-family="Cambria Math,Cambria Math_MSFontService,sans-serif" font-weight="400" font-size="21" transform="translate(1099.19 218)">)</text><path d="M1070.5 189.5C1070.5 192.814 1064.57 195.5 1057.25 195.5L1046.25 195.5C1038.93 195.5 1033 198.186 1033 201.5 1033 198.186 1027.07 195.5 1019.75 195.5L1008.75 195.5C1001.43 195.5 995.5 192.814 995.5 189.5" stroke="#1296DB" stroke-width="1.33333" stroke-miterlimit="8" fill="none" fill-rule="evenodd"/><text font-family="Calibri,Calibri_MSFontService,sans-serif" font-weight="400" font-size="21" transform="translate(1136.27 182)">sub</text><text font-family="Calibri,Calibri_MSFontService,sans-serif" font-weight="400" font-size="21" transform="translate(1166.94 182)">-</text><text font-family="Calibri,Calibri_MSFontService,sans-serif" font-weight="400" font-size="21" transform="translate(1173.44 182)">sentence</text><text font-family="Cambria Math,Cambria Math_MSFontService,sans-serif" font-weight="400" font-size="21" transform="translate(1141.52 76)">ğšª</text><text font-family="Cambria Math,Cambria Math_MSFontService,sans-serif" font-weight="400" font-size="15" transform="translate(1151.19 80)">ğ‚ğ‹ğˆğ</text><text font-family="Cambria Math,Cambria Math_MSFontService,sans-serif" font-weight="400" font-size="21" transform="translate(1185.58 76)">(</text><text font-family="Cambria Math,Cambria Math_MSFontService,sans-serif" font-weight="400" font-size="21" transform="translate(1194.41 76)">ğ’</text><text font-family="Cambria Math,Cambria Math_MSFontService,sans-serif" font-weight="400" font-size="15" transform="translate(1205.74 80)">ğ¥</text><text font-family="Cambria Math,Cambria Math_MSFontService,sans-serif" font-weight="400" font-size="21" transform="translate(1211.63 76)">,</text><text font-family="Cambria Math,Cambria Math_MSFontService,sans-serif" font-weight="400" font-size="21" transform="translate(1219.52 76)">I</text><text font-family="Cambria Math,Cambria Math_MSFontService,sans-serif" font-weight="400" font-size="21" transform="translate(1226.52 76)">)</text><path d="M1074.5 91.4533C1074.5 88.7177 1076.72 86.5001 1079.45 86.5001L1127.55 86.5001C1130.28 86.5001 1132.5 88.7177 1132.5 91.4533L1132.5 184.547C1132.5 187.282 1130.28 189.5 1127.55 189.5L1079.45 189.5C1076.72 189.5 1074.5 187.282 1074.5 184.547Z" stroke="#D81E06" stroke-width="1.33333" stroke-miterlimit="8" stroke-dasharray="5.33333 4" fill="none" fill-rule="evenodd"/><path d="M995.5 76.1096C995.5 73.5638 997.564 71.5001 1000.11 71.5001L1065.89 71.5001C1068.44 71.5001 1070.5 73.5638 1070.5 76.1096L1070.5 184.891C1070.5 187.436 1068.44 189.5 1065.89 189.5L1000.11 189.5C997.564 189.5 995.5 187.436 995.5 184.891Z" stroke="#1296DB" stroke-width="1.33333" stroke-miterlimit="8" stroke-dasharray="5.33333 4" fill="none" fill-rule="evenodd"/><path d="M1131.22 125.895 1138.43 122.555 1138.4 122.568 1145.27 118.984 1145.21 119.019 1151.38 114.947 1151.29 115.016 1156.43 110.213 1156.33 110.326 1160.2 104.629 1160.14 104.735 1162.97 98.3066 1162.94 98.3838 1165.22 90.7696 1166.49 91.1522 1164.2 98.8058 1161.33 105.327 1157.39 111.136 1152.16 116.029 1145.91 120.15 1139.01 123.758 1131.78 127.105ZM1161.65 91.2668 1167.5 84.5001 1169.4 93.2393Z" fill="#D81E06"/><g><g><g><path d="M18.9805 21.5 24.0195 21.5 24.0195 39.5575C24.0195 40.7165 23.0797 41.6562 21.9208 41.6562L21.0792 41.6562C19.9201 41.6562 18.9805 40.7166 18.9805 39.5575L18.9805 21.5Z" fill="#333303" transform="matrix(6.12323e-17 1 -1.23256 7.54724e-17 363 106)"/><path d="M10.8777 18.3002 19.57 4.20342C20.1778 3.21641 21.4706 2.90898 22.4576 3.51674 22.7294 3.68407 22.9594 3.91116 23.1301 4.18074L32.0568 18.2775C32.6774 19.2565 32.3869 20.5532 31.4079 21.1738 31.0715 21.3871 30.6814 21.5002 30.2831 21.5L12.664 21.5C11.5049 21.5012 10.5643 20.5624 10.5631 19.4033 10.5628 19.0138 10.6708 18.6318 10.8751 18.3002Z" fill="#333303" transform="matrix(6.12323e-17 1 -1.23256 7.54724e-17 363 106)"/></g></g></g><g><g><g><path d="M18.9805 21.5 24.0195 21.5 24.0195 39.5575C24.0195 40.7165 23.0797 41.6562 21.9208 41.6562L21.0792 41.6562C19.9201 41.6562 18.9805 40.7166 18.9805 39.5575L18.9805 21.5Z" fill="#333303" transform="matrix(6.12323e-17 1 -1.23256 7.54724e-17 501 106)"/><path d="M10.8777 18.3002 19.57 4.20342C20.1778 3.21641 21.4706 2.90898 22.4576 3.51674 22.7294 3.68407 22.9594 3.91116 23.1301 4.18074L32.0568 18.2775C32.6774 19.2565 32.3869 20.5532 31.4079 21.1738 31.0715 21.3871 30.6814 21.5002 30.2831 21.5L12.664 21.5C11.5049 21.5012 10.5643 20.5624 10.5631 19.4033 10.5628 19.0138 10.6708 18.6318 10.8751 18.3002Z" fill="#333303" transform="matrix(6.12323e-17 1 -1.23256 7.54724e-17 501 106)"/></g></g></g><g><g><g><path d="M18.9805 21.5 24.0195 21.5 24.0195 39.5575C24.0195 40.7165 23.0797 41.6562 21.9208 41.6562L21.0792 41.6562C19.9201 41.6562 18.9805 40.7166 18.9805 39.5575L18.9805 21.5Z" fill="#333303" transform="matrix(6.12323e-17 1 -1.23256 7.54724e-17 802 106)"/><path d="M10.8777 18.3002 19.57 4.20342C20.1778 3.21641 21.4706 2.90898 22.4576 3.51674 22.7294 3.68407 22.9594 3.91116 23.1301 4.18074L32.0568 18.2775C32.6774 19.2565 32.3869 20.5532 31.4079 21.1738 31.0715 21.3871 30.6814 21.5002 30.2831 21.5L12.664 21.5C11.5049 21.5012 10.5643 20.5624 10.5631 19.4033 10.5628 19.0138 10.6708 18.6318 10.8751 18.3002Z" fill="#333303" transform="matrix(6.12323e-17 1 -1.23256 7.54724e-17 802 106)"/></g></g></g><g><g><g><path d="M18.9805 21.5 24.0195 21.5 24.0195 39.5575C24.0195 40.7165 23.0797 41.6562 21.9208 41.6562L21.0792 41.6562C19.9201 41.6562 18.9805 40.7166 18.9805 39.5575L18.9805 21.5Z" fill="#333303" transform="matrix(6.12323e-17 1 -1.25581 7.68964e-17 962 106)"/><path d="M10.8777 18.3002 19.57 4.20342C20.1778 3.21641 21.4706 2.90898 22.4576 3.51674 22.7294 3.68407 22.9594 3.91116 23.1301 4.18074L32.0568 18.2775C32.6774 19.2565 32.3869 20.5532 31.4079 21.1738 31.0715 21.3871 30.6814 21.5002 30.2831 21.5L12.664 21.5C11.5049 21.5012 10.5643 20.5624 10.5631 19.4033 10.5628 19.0138 10.6708 18.6318 10.8751 18.3002Z" fill="#333303" transform="matrix(6.12323e-17 1 -1.25581 7.68964e-17 962 106)"/></g></g></g><g><g><g><path d="M18.9805 21.5 24.0195 21.5 24.0195 39.5575C24.0195 40.7165 23.0797 41.6562 21.9208 41.6562L21.0792 41.6562C19.9201 41.6562 18.9805 40.7166 18.9805 39.5575L18.9805 21.5Z" fill="#333303" transform="matrix(6.12323e-17 1 -1.23256 7.54724e-17 1316 106)"/><path d="M10.8777 18.3002 19.57 4.20342C20.1778 3.21641 21.4706 2.90898 22.4576 3.51674 22.7294 3.68407 22.9594 3.91116 23.1301 4.18074L32.0568 18.2775C32.6774 19.2565 32.3869 20.5532 31.4079 21.1738 31.0715 21.3871 30.6814 21.5002 30.2831 21.5L12.664 21.5C11.5049 21.5012 10.5643 20.5624 10.5631 19.4033 10.5628 19.0138 10.6708 18.6318 10.8751 18.3002Z" fill="#333303" transform="matrix(6.12323e-17 1 -1.23256 7.54724e-17 1316 106)"/></g></g></g><text fill="#7F7F7F" font-family="Calibri,Calibri_MSFontService,sans-serif" font-weight="700" font-size="24" transform="translate(1287.05 30)">(3) Optimization</text><path d="M1319.5 162.318C1319.5 160.762 1320.76 159.5 1322.32 159.5L1536.68 159.5C1538.24 159.5 1539.5 160.762 1539.5 162.318L1539.5 214.682C1539.5 216.239 1538.24 217.5 1536.68 217.5L1322.32 217.5C1320.76 217.5 1319.5 216.239 1319.5 214.682Z" stroke="#C55A11" stroke-width="3" stroke-miterlimit="8" fill="#FBE5D6" fill-rule="evenodd"/><text font-family="Calibri,Calibri_MSFontService,sans-serif" font-weight="400" font-size="24" transform="translate(1381.48 197)">MLLM</text><text font-family="Cambria Math,Cambria Math_MSFontService,sans-serif" font-weight="400" font-size="24" transform="translate(1448.31 197)">ğ…</text><text font-family="Cambria Math,Cambria Math_MSFontService,sans-serif" font-weight="400" font-size="18" transform="translate(1464.81 202)">ğœ½</text><g><g><g><path d="M14.325 3.90001C11.85 4.57501 11.4 6.60001 11.55 7.875 9.82499 5.77499 9.9 3.45001 9.9 0 4.275 2.10001 5.54999 8.24999 5.4 10.125 4.05 9 3.74999 6.22499 3.74999 6.22499 2.25 6.975 1.49999 9.07501 1.49999 10.725 1.49999 14.775 4.725 18 8.775 18 12.825 18 16.05 14.775 16.05 10.725 16.125 8.325 14.325 7.2 14.325 3.90001Z" fill="#C00000" transform="matrix(1 0 0 1.05556 1512 197)"/></g></g></g><path d="M1318 47.5139C1318 46.6778 1318.68 46 1319.51 46L1537.49 46C1538.32 46 1539 46.6778 1539 47.5139L1539 101.486C1539 102.322 1538.32 103 1537.49 103L1319.51 103C1318.68 103 1318 102.322 1318 101.486Z" stroke="#4472C4" stroke-width="2" stroke-miterlimit="8" stroke-dasharray="16 6" fill="#DAE3F3" fill-rule="evenodd"/><text fill="#4472C4" font-family="Calibri,Calibri_MSFontService,sans-serif" font-weight="400" font-size="24" transform="translate(1348.52 82)">Data Divergence</text><path d="M1334.5 129.688C1334.5 140.261 1339.13 149.495 1345.75 152.139L1345.75 150.264 1349.5 154.75 1345.75 157.764 1345.75 155.889C1339.13 153.245 1334.5 144.011 1334.5 133.438Z" fill="#E7E6E6" fill-rule="evenodd"/><path d="M1349.5 110.25C1341.69 110.25 1335.18 119.523 1334.55 131.563 1333.88 118.798 1340.03 107.612 1348.29 106.576 1348.69 106.525 1349.1 106.5 1349.5 106.5Z" fill="#BAB9B9" fill-rule="evenodd"/><path d="M1334.5 129.688C1334.5 140.261 1339.13 149.495 1345.75 152.139L1345.75 150.264 1349.5 154.75 1345.75 157.764 1345.75 155.889C1339.13 153.245 1334.5 144.011 1334.5 133.438L1334.5 129.688C1334.5 116.881 1341.22 106.5 1349.5 106.5L1349.5 110.25C1341.69 110.25 1335.18 119.523 1334.55 131.563" stroke="#000000" stroke-width="1.33333" stroke-miterlimit="8" fill="none" fill-rule="evenodd"/><text font-family="Calibri,Calibri_MSFontService,sans-serif" font-weight="400" font-size="24" transform="translate(1371.62 139)">Modifying</text><text font-family="Cambria Math,Cambria Math_MSFontService,sans-serif" font-weight="400" font-size="24" transform="translate(1476.24 139)">ğ›½</text><path d="M978.5 188.167 1168.33 188.167 1168.33 190.833 978.5 190.833ZM1168.33 189.5 1162.99 185.5 1176.33 189.5 1162.99 193.5Z"/></g></svg>